<svg width="256" height="256" viewBox="0 0 256 256" xmlns="http://www.w3.org/2000/svg">
  <rect width="256" height="256" fill="#0D0208"/>
  
  <rect x="40" y="20" width="20" height="60" fill="#003B00" rx="4"/>
  <rect x="40" y="90" width="20" height="40" fill="#008F11" rx="4"/>
  <rect x="40" y="140" width="20" height="80" fill="#00FF41" rx="4"/>

  <rect x="118" y="-10" width="20" height="40" fill="#008F11" rx="4"/>
  <rect x="118" y="40" width="20" height="100" fill="#003B00" rx="4"/>
  <rect x="118" y="150" width="20" height="30" fill="#00FF41" rx="4"/>
  <rect x="118" y="190" width="20" height="40" fill="#008F11" rx="4"/>

  <rect x="196" y="10" width="20" height="30" fill="#00FF41" rx="4"/>
  <rect x="196" y="50" width="20" height="80" fill="#008F11" rx="4"/>
  <rect x="196" y="140" width="20" height="90" fill="#003B00" rx="4"/>
  
  <rect x="0" y="100" width="256" height="5" fill="#00FF41" fill-opacity="0.2"/>
  <rect x="0" y="108" width="256" height="2" fill="#00FF41" fill-opacity="0.1"/>
</svg>